<?xml version="1.0" ?>
<!DOCTYPE svg  PUBLIC '-//W3C//DTD SVG 1.1//EN'  'http://www.w3.org/Graphics/SVG/1.1/DTD/svg11.dtd'>
<!-- Uploaded to: SVG Repo, www.svgrepo.com, Generator: SVG Repo Mixer Tools -->
<svg fill="#000000" width="800px" height="800px" viewBox="0 0 846.66 846.66" style="shape-rendering:geometricPrecision; text-rendering:geometricPrecision; image-rendering:optimizeQuality; fill-rule:evenodd; clip-rule:evenodd" version="1.1" xml:space="preserve" xmlns="http://www.w3.org/2000/svg" xmlns:xlink="http://www.w3.org/1999/xlink">
<defs>
<style type="text/css">
   <![CDATA[
    .fil0 {fill:black;fill-rule:nonzero}
   ]]>
  </style>
</defs>
<g id="Layer_x0020_1">
<path class="fil0" d="M173.4 164.76l46.54 0 0 -99.29c0,-11.49 9.32,-20.81 20.81,-20.81l365.16 0c11.49,0 20.81,9.32 20.81,20.81l0 99.29 46.55 0c11.49,0 20.8,9.32 20.8,20.81l0 574.82 46.44 0 0 -70.09c0,-27.36 41.6,-27.36 41.6,0l0 70.09 36.41 0c27.37,0 27.37,41.61 0,41.61 -263.46,0 -526.92,0 -790.38,0 -27.36,0 -27.36,-41.61 0,-41.61l36.41 0 0 -70.09c0,-27.36 41.6,-27.36 41.6,0l0 70.09 46.44 0 0 -574.82c0,-11.49 9.32,-20.81 20.81,-20.81zm304.59 595.63l0 -148.28 -109.32 0 0 148.28 109.32 0zm-150.93 0l0 -169.08c0,-11.49 9.32,-20.81 20.8,-20.81l150.94 0c11.49,0 20.8,9.32 20.8,20.81l0 169.08 132.86 0 0 -484.23 -458.26 0 0 484.23 132.86 0zm-79.01 -344.07l64.92 0c11.49,0 20.8,9.32 20.8,20.81l0 64.91c0,11.49 -9.31,20.81 -20.8,20.81l-64.92 0c-11.49,0 -20.8,-9.32 -20.8,-20.81l0 -64.91c0,-11.49 9.31,-20.81 20.8,-20.81zm44.11 41.61l-23.3 0 0 23.31 23.3 0 0 -23.31zm241.53 -41.61l64.92 0c11.49,0 20.81,9.32 20.81,20.81l0 64.91c0,11.49 -9.32,20.81 -20.81,20.81l-64.92 0c-11.48,0 -20.8,-9.32 -20.8,-20.81l0 -64.91c0,-11.49 9.32,-20.81 20.8,-20.81zm44.12 41.61l-23.31 0 0 23.31 23.31 0 0 -23.31zm-186.94 -41.61l64.92 0c11.49,0 20.81,9.32 20.81,20.81l0 64.91c0,11.49 -9.32,20.81 -20.81,20.81l-64.92 0c-11.49,0 -20.8,-9.32 -20.8,-20.81l0 -64.91c0,-11.49 9.31,-20.81 20.8,-20.81zm44.12 41.61l-23.31 0 0 23.31 23.31 0 0 -23.31zm-186.94 -161.71l64.92 0c11.49,0 20.8,9.32 20.8,20.81l0 64.91c0,11.49 -9.31,20.81 -20.8,20.81l-64.92 0c-11.49,0 -20.8,-9.32 -20.8,-20.81l0 -64.91c0,-11.49 9.31,-20.81 20.8,-20.81zm44.11 41.61l-23.3 0 0 23.31 23.3 0 0 -23.31zm241.53 -41.61l64.92 0c11.49,0 20.81,9.32 20.81,20.81l0 64.91c0,11.49 -9.32,20.81 -20.81,20.81l-64.92 0c-11.48,0 -20.8,-9.32 -20.8,-20.81l0 -64.91c0,-11.49 9.32,-20.81 20.8,-20.81zm44.12 41.61l-23.31 0 0 23.31 23.31 0 0 -23.31zm-186.94 -41.61l64.92 0c11.49,0 20.81,9.32 20.81,20.81l0 64.91c0,11.49 -9.32,20.81 -20.81,20.81l-64.92 0c-11.49,0 -20.8,-9.32 -20.8,-20.81l0 -64.91c0,-11.49 9.31,-20.81 20.8,-20.81zm44.12 41.61l-23.31 0 0 23.31 23.31 0 0 -23.31zm-240.79 -103.28l458.26 0 0 -28.18c-152.75,0 -305.51,0 -458.26,0l0 28.18zm67.35 -69.79l323.56 0 0 -78.49 -323.56 0 0 78.49z"/>
</g>
</svg>