<?xml version="1.0" encoding="UTF-8"?>
<svg version="1.1" xmlns="http://www.w3.org/2000/svg" width="980" height="980">
<path d="M0 0 C3.76716237 1.46971074 7.19053264 3.1502078 10.69921875 5.16796875 C11.81264648 5.80621582 12.92607422 6.44446289 14.07324219 7.10205078 C15.27804914 7.79710633 16.48280029 8.4922586 17.6875 9.1875 C18.94288672 9.90894749 20.19842292 10.63013494 21.45410156 11.35107422 C24.68120292 13.2050294 27.90596414 15.06301465 31.13006592 16.92218018 C32.90920925 17.94766871 34.68904049 18.97194872 36.46923828 19.99560547 C48.99539379 27.19846768 61.49408101 34.44706836 73.97070312 41.73535156 C90.89137443 51.6140539 107.88254254 61.36916381 124.90216064 71.07608032 C133.98795878 76.25985125 143.03821041 81.50194021 152.06738281 86.78369141 C162.59111319 92.93792989 173.1539592 99.02379087 183.71777344 105.10888672 C189.14659942 108.23680148 194.57319281 111.36858448 200 114.5 C202.16665583 115.75001879 204.3333225 117.00001878 206.5 118.25 C219.5 125.75 232.5 133.25 245.5 140.75 C246.5737085 141.36939453 247.64741699 141.98878906 248.75366211 142.62695312 C250.90830624 143.870123 253.06276757 145.11360975 255.21704102 146.35742188 C260.22754121 149.24983147 265.23962635 152.13935227 270.25863647 155.01696777 C272.01728749 156.02548314 273.77533209 157.0350477 275.53320312 158.04492188 C277.72472231 159.30350518 279.91734504 160.56016987 282.11132812 161.81445312 C283.11486328 162.39130859 284.11839844 162.96816406 285.15234375 163.5625 C286.4515979 164.30693359 286.4515979 164.30693359 287.77709961 165.06640625 C288.84065674 165.70449219 289.90421387 166.34257812 291 167 C291.88251718 167.37489972 292.76503435 167.74979944 293.67429447 168.13605976 C297.0269567 169.78332007 299.39597461 171.30544156 302 174 C303.65360814 179.51650209 303.44599473 184.8957886 303.328125 190.61206055 C303.33321144 192.31103509 303.34307081 194.01000103 303.35733032 195.70892334 C303.38180144 200.31098922 303.33779902 204.91009001 303.27999115 209.51176429 C303.22973679 214.32915177 303.23803767 219.14646589 303.23876953 223.96406555 C303.23133746 232.05052484 303.18170068 240.135845 303.10449219 248.22192383 C303.01549507 257.5726994 302.98218224 266.92233261 302.9810791 276.27350587 C302.97950645 286.2304556 302.93982434 296.18697671 302.88761902 306.14377618 C302.8749933 309.01324108 302.86922993 311.88265363 302.86486816 314.75214195 C302.85595911 319.25789462 302.82135902 323.7627497 302.76676559 328.26817322 C302.75055274 329.9225332 302.74280093 331.57700065 302.74406815 333.23143959 C302.74428246 335.48801653 302.71380675 337.74213645 302.67529297 339.99833679 C302.66561493 341.26131938 302.65593689 342.52430197 302.64596558 343.82555676 C302 347 302 347 299.61665344 349.33804035 C297.01275914 350.99189607 294.41803818 352.61595614 291.73828125 354.14453125 C290.71541016 354.73105469 289.69253906 355.31757812 288.63867188 355.921875 C287.54103516 356.54578125 286.44339844 357.1696875 285.3125 357.8125 C284.15013283 358.47741412 282.98802819 359.14278737 281.82617188 359.80859375 C279.4145854 361.1900913 277.00188656 362.56961565 274.58837891 363.94775391 C269.04829071 367.1133854 263.52503166 370.30818992 258 373.5 C255.83602723 374.74885342 253.67196442 375.99755082 251.5078125 377.24609375 C250.43563477 377.86468262 249.36345703 378.48327148 248.25878906 379.12060547 C244.98300434 381.00980166 241.70644107 382.89764109 238.4296875 384.78515625 C226.95204938 391.39846202 215.4903356 398.03751247 204.05395508 404.72192383 C195.47821922 409.73061693 186.88058791 414.70096818 178.26489258 419.640625 C173.39283618 422.43884311 168.54237848 425.25735514 163.7578125 428.203125 C162.97591553 428.68040039 162.19401855 429.15767578 161.38842773 429.64941406 C159.97130532 430.51902262 158.5612689 431.40034141 157.16040039 432.29589844 C152.63922439 435.05979162 152.63922439 435.05979162 149.62744141 434.77807617 C146.66505018 433.90080979 144.33322572 432.67695843 141.66796875 431.11328125 C140.63478516 430.51193359 139.60160156 429.91058594 138.53710938 429.29101562 C137.43173828 428.63810547 136.32636719 427.98519531 135.1875 427.3125 C134.02057199 426.63019245 132.8532478 425.94856206 131.68554688 425.26757812 C129.28595951 423.86665869 126.88876622 422.46177647 124.49365234 421.05322266 C120.30842992 418.59202938 116.11387785 416.14692169 111.91918945 413.7019043 C109.96014843 412.55977207 108.00165903 411.41669318 106.04370117 410.27270508 C98.71068418 405.98915662 91.35891056 401.73888545 84 397.5 C70.64984335 389.80882531 57.34266872 382.0451704 44.04101562 374.27050781 C41.069345 372.53393167 38.09726061 370.79806612 35.125 369.0625 C33.66924561 368.21196045 33.66924561 368.21196045 32.18408203 367.34423828 C26.75079824 364.17385606 21.3073016 361.02214548 15.8515625 357.890625 C15.25671051 357.54885727 14.66185852 357.20708954 14.04898071 356.85496521 C11.15967117 355.19502159 8.26894497 353.53772576 5.37548828 351.88500977 C3.82063721 350.9925354 3.82063721 350.9925354 2.234375 350.08203125 C1.31881836 349.55843018 0.40326172 349.0348291 -0.54003906 348.49536133 C-2.81137932 347.11465876 -4.9071697 345.63559636 -7 344 C-5.73172274 340.19516823 -4.56878831 339.89015182 -1.12890625 337.953125 C-0.0929834 337.36329834 0.94293945 336.77347168 2.01025391 336.16577148 C3.14124512 335.53356689 4.27223633 334.9013623 5.4375 334.25 C6.6169248 333.58178233 7.79579058 332.91257709 8.97412109 332.24243164 C11.42669714 330.84865153 13.88163879 329.45918023 16.33837891 328.07275391 C21.95552389 324.8985865 27.53910841 321.6662411 33.125 318.4375 C34.20064209 317.81713867 35.27628418 317.19677734 36.38452148 316.55761719 C43.60241716 312.39342574 50.80516863 308.20389472 58 304 C66.2778212 299.16332113 74.56941871 294.35135964 82.875 289.5625 C83.94218262 288.94713379 85.00936523 288.33176758 86.10888672 287.69775391 C91.18601752 284.77136801 96.2645373 281.84741397 101.34506226 278.92692566 C103.1250134 277.90350745 104.90460669 276.87946987 106.68408203 275.85522461 C108.91349337 274.57221373 111.14359376 273.29039912 113.37451172 272.01000977 C117.84183036 269.43822933 122.27599992 266.85062365 126.6171875 264.0703125 C130 262 130 262 132 262 C132 261.34 132 260.68 132 260 C130.68539795 259.60192139 130.68539795 259.60192139 129.34423828 259.19580078 C126.09038138 258.03231771 123.4420522 256.65340563 120.4921875 254.8671875 C119.43765381 254.23417725 118.38312012 253.60116699 117.29663086 252.94897461 C116.46227005 252.44308304 116.46227005 252.44308304 115.61105347 251.92697144 C112.60155356 250.10334791 109.57968853 248.30042132 106.55859375 246.49609375 C105.6212011 245.93551018 105.6212011 245.93551018 104.66487122 245.36360168 C98.13798533 241.46883832 91.54454745 237.69416501 84.9375 233.9375 C83.7649466 233.27014898 82.59242061 232.60274979 81.41992188 231.93530273 C79.66842162 230.93830636 77.91690487 229.94133957 76.16519165 228.94471741 C70.05466455 225.46619993 63.96361294 221.95419093 57.875 218.4375 C56.28534424 217.51940552 56.28534424 217.51940552 54.66357422 216.58276367 C52.52514401 215.34747587 50.38679771 214.11204282 48.24853516 212.87646484 C44.92039446 210.95401712 41.59122808 209.03335754 38.26171875 207.11328125 C36.57876709 206.14273804 36.57876709 206.14273804 34.86181641 205.15258789 C32.7716812 203.94728793 30.68151569 202.74204052 28.59130859 201.53686523 C26.61808933 200.39869467 24.66739409 199.22054338 22.74169922 198.00369263 C19.970021 196.37178332 17.36526382 195.50141295 14.2616272 194.68040466 C8.25005767 192.74544847 3.58582576 190.35049862 0 185 C-3.48642188 172.71069315 -2.26803005 159.16349696 -1.92648482 146.52778459 C-1.80726391 141.3726416 -1.79651579 136.21726766 -1.77400208 131.06095886 C-1.71507084 121.30935506 -1.55934741 111.56182457 -1.36836177 101.81201047 C-1.15558456 90.70734478 -1.05142695 79.60247874 -0.95614851 68.49628031 C-0.75783452 45.66193307 -0.423902 22.83119523 0 0 Z " fill="#F5921E" transform="translate(37,272)"/>
<path d="M0 0 C0.33 0 0.66 0 1 0 C1.5149298 21.15710349 1.90234554 42.3131685 2.13986778 63.47527599 C2.25311186 73.30262915 2.40733669 83.12608051 2.65966797 92.95092773 C2.87961904 101.51912692 3.02102538 110.08450115 3.06994689 118.65544492 C3.09853595 123.19164958 3.16516023 127.71977742 3.32606125 132.25337791 C4.26653442 159.79614966 4.26653442 159.79614966 -1.15166855 166.76907921 C-6.32477659 171.20797307 -12.01229387 173.82144847 -18.40670776 176.05151749 C-21.90998327 177.33282143 -24.83362016 179.08502378 -27.9921875 181.05859375 C-29.95250698 182.18597116 -31.91343475 183.31229156 -33.875 184.4375 C-42.26601472 189.26458911 -50.64274267 194.11469656 -59 199 C-67.31746682 203.86111557 -75.65202516 208.69146729 -84 213.5 C-91.47712014 217.80705317 -98.94728229 222.12530737 -106.39892578 226.47631836 C-108.40258494 227.64589765 -110.40744279 228.81342616 -112.41357422 229.97875977 C-117.14081145 232.72754896 -121.84534934 235.50440328 -126.51171875 238.35546875 C-127.37676025 238.87657227 -128.24180176 239.39767578 -129.13305664 239.93457031 C-130.74348266 240.90584322 -132.34620826 241.89005267 -133.93920898 242.88964844 C-134.65278564 243.31665039 -135.3663623 243.74365234 -136.1015625 244.18359375 C-136.71338379 244.56056396 -137.32520508 244.93753418 -137.95556641 245.32592773 C-141.88856866 246.62268188 -145.14203071 245.4198346 -148.74707031 243.65576172 C-149.68131836 243.08615723 -150.61556641 242.51655273 -151.578125 241.9296875 C-152.64313232 241.28821777 -153.70813965 240.64674805 -154.80541992 239.98583984 C-155.36587006 239.64236511 -155.92632019 239.29889038 -156.50375366 238.94500732 C-158.89582472 237.4792728 -161.30041123 236.03466285 -163.70451355 234.58877563 C-164.9520497 233.83831753 -166.19896206 233.08682156 -167.44526672 232.33432007 C-173.64367801 228.59585835 -179.90885257 224.97687073 -186.1875 221.375 C-197.49583769 214.873344 -208.77024126 208.31544588 -220.03222656 201.73388672 C-225.01990957 198.8198916 -230.01008679 195.91017388 -235 193 C-236.98438682 191.84246817 -238.9687618 190.68491606 -240.953125 189.52734375 C-241.94119141 188.95097168 -242.92925781 188.37459961 -243.94726562 187.78076172 C-265.421875 175.25390625 -265.421875 175.25390625 -268.14648438 173.65673828 C-270.21191729 172.45755726 -272.28751152 171.27582142 -274.36914062 170.10498047 C-275.46935547 169.48123535 -276.56957031 168.85749023 -277.703125 168.21484375 C-279.22147949 167.36394165 -279.22147949 167.36394165 -280.77050781 166.49584961 C-281.50624023 166.00221924 -282.24197266 165.50858887 -283 165 C-283 164.34 -283 163.68 -283 163 C-282.2879541 162.59386475 -281.5759082 162.18772949 -280.84228516 161.76928711 C-264.60954545 152.50808466 -248.39940195 143.2092014 -232.21777344 133.85888672 C-226.81329355 130.73675395 -221.40652588 127.61858796 -216 124.5 C-213.8333225 123.25001878 -211.66665583 122.00001879 -209.5 120.75 C-205.16666667 118.25 -200.83333333 115.75 -196.5 113.25 C-195.42766113 112.63133057 -194.35532227 112.01266113 -193.25048828 111.37524414 C-191.08223736 110.1243552 -188.91394303 108.87354148 -186.74560547 107.62280273 C-181.35282085 104.51201665 -175.96077907 101.39995762 -170.5703125 98.28515625 C-159.43588882 91.85300359 -148.2908427 85.439961 -137.125 79.0625 C-136.5454657 78.73148285 -135.9659314 78.4004657 -135.36883545 78.05941772 C-129.46019919 74.68497367 -123.55004665 71.31319656 -117.63832092 67.94416809 C-114.67509502 66.25523789 -111.71241688 64.56534878 -108.75 62.875 C-108.16723297 62.54253265 -107.58446594 62.21006531 -106.98403931 61.86752319 C-98.8979036 57.25230787 -90.84441903 52.58393664 -82.8125 47.875 C-73.55948769 42.45036854 -64.22602065 37.18325088 -54.85595703 31.96386719 C-48.44478738 28.38680248 -42.08478779 24.74113636 -35.77563477 20.98754883 C-31.1328682 18.23363238 -26.45868759 15.53733253 -21.76953125 12.86328125 C-21.13190353 12.49966492 -20.49427582 12.13604858 -19.83732605 11.76141357 C-16.61930119 9.92747973 -13.39959762 8.09653873 -10.1784668 6.26806641 C-8.99396886 5.59409135 -7.80947953 4.92010116 -6.625 4.24609375 C-5.56539063 3.64466553 -4.50578125 3.0432373 -3.4140625 2.42358398 C-1.12725439 1.21055638 -1.12725439 1.21055638 0 0 Z " fill="#C30D42" transform="translate(329,451)"/>
<path d="M0 0 C0.33 25.41 0.66 50.82 1 77 C4.96 73.7 8.92 70.4 13 67 C29.80173554 55.49767433 47.47402303 52.42260777 67.51171875 55.625 C86.4711837 59.41099156 102.97387316 71.3155566 114.0625 86.8984375 C121.15752433 97.78284983 126.30108505 110.04853147 128 123 C128.10957031 123.82886719 128.21914063 124.65773438 128.33203125 125.51171875 C131.22844678 150.72984332 124.89383153 175.24839564 109.21875 195.3125 C95.76769692 211.60532486 78.21641817 219.9372158 57.55078125 222.27734375 C37.94193695 223.21109824 19.66376354 213.7386591 4 203 C3.01 202.01 3.01 202.01 2 201 C-1.80058475 204.80058475 0.35752894 211.63706592 0 217 C-13.86 217 -27.72 217 -42 217 C-42.65819792 211.73441667 -43.12632916 207.12095001 -43.13371277 201.89936829 C-43.13597833 201.23200266 -43.13824388 200.56463703 -43.14057809 199.87704819 C-43.14685138 197.6658167 -43.14609306 195.45464755 -43.14526367 193.2434082 C-43.14825939 191.64757713 -43.15166286 190.05174677 -43.15544128 188.45591736 C-43.16424476 184.13747023 -43.16661789 179.81904294 -43.16725707 175.5005877 C-43.16796979 172.7968343 -43.17010834 170.09308588 -43.17275429 167.38933372 C-43.18199651 157.94029803 -43.18609069 148.4912764 -43.18530273 139.04223633 C-43.18470265 130.26158283 -43.19524375 121.4809909 -43.2110464 112.70035297 C-43.22416363 105.1399632 -43.22948486 97.57959345 -43.22884732 90.0191924 C-43.22859351 85.51347288 -43.23137969 81.00780809 -43.24202538 76.50209999 C-43.25177671 72.25932907 -43.25173782 68.01666442 -43.24450874 63.77388954 C-43.2434715 62.226449 -43.24577394 60.6790016 -43.2518692 59.13157272 C-43.31070407 43.14529435 -42.74184237 25.91579594 -30.98828125 13.734375 C-25.11198838 8.60849281 -18.27554331 5.54786245 -11.125 2.625 C-10.48240234 2.36187012 -9.83980469 2.09874023 -9.17773438 1.82763672 C-5.84816514 0.52609375 -3.63761333 0 0 0 Z M12.71484375 103.5078125 C3.04795082 115.9031182 0.07656667 129.56298246 1 145 C2.57985805 157.14606462 7.55596012 168.90025511 16.703125 177.28515625 C26.40413132 184.52791437 37.90350874 188.38048402 50 187 C63.86287323 184.02817821 73.85357896 177.44441954 81.578125 165.5390625 C88.66172667 152.8897738 90.0403381 137.60450754 86.8125 123.5625 C83.19725496 111.35063542 76.39458395 100.36922107 65.04296875 93.95703125 C61.46134717 92.27921617 57.80709648 91.05506744 54 90 C53.195625 89.773125 52.39125 89.54625 51.5625 89.3125 C36.42956159 87.46701971 23.07029606 92.1433674 12.71484375 103.5078125 Z " fill="#FFFFFF" transform="translate(759,399)"/>
<path d="M0 0 C2.55535371 2.22955593 5.00056483 4.52808965 7.41796875 6.90625 C8.19140625 7.66679687 8.96484375 8.42734375 9.76171875 9.2109375 C25.21656388 25.35384081 32.04788443 46.85816946 31.6640625 68.984375 C30.297042 90.76990798 21.76021452 109.30352468 6.41796875 124.90625 C5.73089844 125.60621094 5.04382813 126.30617188 4.3359375 127.02734375 C-13.69874136 144.19207521 -37.48922259 149.83160135 -61.69140625 149.25390625 C-85.09689769 148.20269374 -105.7205197 137.18472397 -121.63671875 120.29296875 C-136.10743733 104.16038581 -142.34630872 83.15813479 -141.8671875 61.84765625 C-140.24560029 39.43421113 -131.30702291 20.65962612 -115.58203125 4.90625 C-114.97101562 4.28363281 -114.36 3.66101563 -113.73046875 3.01953125 C-83.65844954 -25.45291247 -31.61979407 -25.64025661 0 0 Z M-91.58203125 33.90625 C-100.83053085 45.782457 -102.42000164 60.44005531 -100.859375 74.97167969 C-99.37989275 85.29158934 -93.40694973 96.11910501 -85.828125 103.2421875 C-75.00040239 111.26411764 -63.00444631 114.95669987 -49.58203125 113.90625 C-36.72300457 111.94693608 -25.66803248 106.22612705 -17.58203125 95.90625 C-9.05250092 81.84899831 -6.66638213 66.9212549 -10.58203125 50.90625 C-14.56713517 38.01893812 -21.92430649 28.68106377 -33.58203125 21.90625 C-53.96231761 11.44500755 -76.79170238 16.52112659 -91.58203125 33.90625 Z " fill="#FFFFFF" transform="translate(664.58203125,471.09375)"/>
<path d="M0 0 C3.76716237 1.46971074 7.19053264 3.1502078 10.69921875 5.16796875 C11.81264648 5.80621582 12.92607422 6.44446289 14.07324219 7.10205078 C15.27804914 7.79710633 16.48280029 8.4922586 17.6875 9.1875 C18.94288672 9.90894749 20.19842292 10.63013494 21.45410156 11.35107422 C24.68120292 13.2050294 27.90596414 15.06301465 31.13006592 16.92218018 C32.90920925 17.94766871 34.68904049 18.97194872 36.46923828 19.99560547 C48.99539379 27.19846768 61.49408101 34.44706836 73.97070312 41.73535156 C90.89137443 51.6140539 107.88254254 61.36916381 124.90216064 71.07608032 C133.98795878 76.25985125 143.03821041 81.50194021 152.06738281 86.78369141 C162.59111319 92.93792989 173.1539592 99.02379087 183.71777344 105.10888672 C189.14659942 108.23680148 194.57319281 111.36858448 200 114.5 C202.16665583 115.75001879 204.3333225 117.00001878 206.5 118.25 C219.5 125.75 232.5 133.25 245.5 140.75 C246.5737085 141.36939453 247.64741699 141.98878906 248.75366211 142.62695312 C250.90830624 143.870123 253.06276757 145.11360975 255.21704102 146.35742188 C260.22754121 149.24983147 265.23962635 152.13935227 270.25863647 155.01696777 C272.01728749 156.02548314 273.77533209 157.0350477 275.53320312 158.04492188 C277.72472231 159.30350518 279.91734504 160.56016987 282.11132812 161.81445312 C283.11486328 162.39130859 284.11839844 162.96816406 285.15234375 163.5625 C286.4515979 164.30693359 286.4515979 164.30693359 287.77709961 165.06640625 C288.84065674 165.70449219 289.90421387 166.34257812 291 167 C291.88251718 167.37489972 292.76503435 167.74979944 293.67429447 168.13605976 C297.0269567 169.78332007 299.39597461 171.30544156 302 174 C303.65360814 179.51650209 303.44599473 184.8957886 303.328125 190.61206055 C303.33321144 192.31103509 303.34307081 194.01000103 303.35733032 195.70892334 C303.38180144 200.31098922 303.33779902 204.91009001 303.27999115 209.51176429 C303.22973679 214.32915177 303.23803767 219.14646589 303.23876953 223.96406555 C303.23133746 232.05052484 303.18170068 240.135845 303.10449219 248.22192383 C303.01549507 257.5726994 302.98218224 266.92233261 302.9810791 276.27350587 C302.97950645 286.2304556 302.93982434 296.18697671 302.88761902 306.14377618 C302.8749933 309.01324108 302.86922993 311.88265363 302.86486816 314.75214195 C302.85595911 319.25789462 302.82135902 323.7627497 302.76676559 328.26817322 C302.75055274 329.9225332 302.74280093 331.57700065 302.74406815 333.23143959 C302.74428246 335.48801653 302.71380675 337.74213645 302.67529297 339.99833679 C302.66561493 341.26131938 302.65593689 342.52430197 302.64596558 343.82555676 C302 347 302 347 299.61665344 349.33804035 C297.01275914 350.99189607 294.41803818 352.61595614 291.73828125 354.14453125 C290.71541016 354.73105469 289.69253906 355.31757812 288.63867188 355.921875 C287.54103516 356.54578125 286.44339844 357.1696875 285.3125 357.8125 C284.15013283 358.47741412 282.98802819 359.14278737 281.82617188 359.80859375 C279.4145854 361.1900913 277.00188656 362.56961565 274.58837891 363.94775391 C269.04829071 367.1133854 263.52503166 370.30818992 258 373.5 C255.83602723 374.74885342 253.67196442 375.99755082 251.5078125 377.24609375 C250.43563477 377.86468262 249.36345703 378.48327148 248.25878906 379.12060547 C244.98300434 381.00980166 241.70644107 382.89764109 238.4296875 384.78515625 C226.95204938 391.39846202 215.4903356 398.03751247 204.05395508 404.72192383 C195.47821922 409.73061693 186.88058791 414.70096818 178.26489258 419.640625 C173.39283618 422.43884311 168.54237848 425.25735514 163.7578125 428.203125 C162.97591553 428.68040039 162.19401855 429.15767578 161.38842773 429.64941406 C159.97130532 430.51902262 158.5612689 431.40034141 157.16040039 432.29589844 C152.63922439 435.05979162 152.63922439 435.05979162 149.62744141 434.77807617 C146.66505018 433.90080979 144.33322572 432.67695843 141.66796875 431.11328125 C140.63478516 430.51193359 139.60160156 429.91058594 138.53710938 429.29101562 C137.43173828 428.63810547 136.32636719 427.98519531 135.1875 427.3125 C134.02057199 426.63019245 132.8532478 425.94856206 131.68554688 425.26757812 C129.28595951 423.86665869 126.88876622 422.46177647 124.49365234 421.05322266 C120.30842992 418.59202938 116.11387785 416.14692169 111.91918945 413.7019043 C109.96014843 412.55977207 108.00165903 411.41669318 106.04370117 410.27270508 C98.71068418 405.98915662 91.35891056 401.73888545 84 397.5 C70.64984335 389.80882531 57.34266872 382.0451704 44.04101562 374.27050781 C41.069345 372.53393167 38.09726061 370.79806612 35.125 369.0625 C33.66924561 368.21196045 33.66924561 368.21196045 32.18408203 367.34423828 C26.75079824 364.17385606 21.3073016 361.02214548 15.8515625 357.890625 C15.25671051 357.54885727 14.66185852 357.20708954 14.04898071 356.85496521 C11.15967117 355.19502159 8.26894497 353.53772576 5.37548828 351.88500977 C3.82063721 350.9925354 3.82063721 350.9925354 2.234375 350.08203125 C1.31881836 349.55843018 0.40326172 349.0348291 -0.54003906 348.49536133 C-2.81137932 347.11465876 -4.9071697 345.63559636 -7 344 C-5.73172274 340.19516823 -4.56878831 339.89015182 -1.12890625 337.953125 C-0.0929834 337.36329834 0.94293945 336.77347168 2.01025391 336.16577148 C3.14124512 335.53356689 4.27223633 334.9013623 5.4375 334.25 C6.6169248 333.58178233 7.79579058 332.91257709 8.97412109 332.24243164 C11.42669714 330.84865153 13.88163879 329.45918023 16.33837891 328.07275391 C21.95552389 324.8985865 27.53910841 321.6662411 33.125 318.4375 C34.20064209 317.81713867 35.27628418 317.19677734 36.38452148 316.55761719 C43.60241716 312.39342574 50.80516863 308.20389472 58 304 C66.2778212 299.16332113 74.56941871 294.35135964 82.875 289.5625 C83.94218262 288.94713379 85.00936523 288.33176758 86.10888672 287.69775391 C91.18601752 284.77136801 96.2645373 281.84741397 101.34506226 278.92692566 C103.1250134 277.90350745 104.90460669 276.87946987 106.68408203 275.85522461 C108.91349337 274.57221373 111.14359376 273.29039912 113.37451172 272.01000977 C117.84183036 269.43822933 122.27599992 266.85062365 126.6171875 264.0703125 C130 262 130 262 132 262 C132 261.34 132 260.68 132 260 C130.68539795 259.60192139 130.68539795 259.60192139 129.34423828 259.19580078 C126.09038138 258.03231771 123.4420522 256.65340563 120.4921875 254.8671875 C119.43765381 254.23417725 118.38312012 253.60116699 117.29663086 252.94897461 C116.46227005 252.44308304 116.46227005 252.44308304 115.61105347 251.92697144 C112.60155356 250.10334791 109.57968853 248.30042132 106.55859375 246.49609375 C105.6212011 245.93551018 105.6212011 245.93551018 104.66487122 245.36360168 C98.13798533 241.46883832 91.54454745 237.69416501 84.9375 233.9375 C83.7649466 233.27014898 82.59242061 232.60274979 81.41992188 231.93530273 C79.66842162 230.93830636 77.91690487 229.94133957 76.16519165 228.94471741 C70.05466455 225.46619993 63.96361294 221.95419093 57.875 218.4375 C56.28534424 217.51940552 56.28534424 217.51940552 54.66357422 216.58276367 C52.52514401 215.34747587 50.38679771 214.11204282 48.24853516 212.87646484 C44.92039446 210.95401712 41.59122808 209.03335754 38.26171875 207.11328125 C36.57876709 206.14273804 36.57876709 206.14273804 34.86181641 205.15258789 C32.7716812 203.94728793 30.68151569 202.74204052 28.59130859 201.53686523 C26.61808933 200.39869467 24.66739409 199.22054338 22.74169922 198.00369263 C19.970021 196.37178332 17.36526382 195.50141295 14.2616272 194.68040466 C8.25005767 192.74544847 3.58582576 190.35049862 0 185 C-3.48642188 172.71069315 -2.26803005 159.16349696 -1.92648482 146.52778459 C-1.80726391 141.3726416 -1.79651579 136.21726766 -1.77400208 131.06095886 C-1.71507084 121.30935506 -1.55934741 111.56182457 -1.36836177 101.81201047 C-1.15558456 90.70734478 -1.05142695 79.60247874 -0.95614851 68.49628031 C-0.75783452 45.66193307 -0.423902 22.83119523 0 0 Z M9 16 C8.60243466 37.20945181 8.30288825 58.41828744 8.11919308 79.63071251 C8.03162123 89.48082583 7.91230231 99.32862112 7.7175293 109.17724609 C7.54779157 117.76408337 7.4383464 126.34924215 7.40049559 134.9377104 C7.3783734 139.48411096 7.32663003 144.02571124 7.20258904 148.57056808 C5.85645172 166.20454453 5.85645172 166.20454453 10.64491463 182.46502686 C14.54777566 186.12369774 18.80598198 187.93532535 23.90807152 189.35233593 C27.11203658 190.34428813 29.66604904 191.99037231 32.50390625 193.765625 C34.5230869 194.92769275 36.54262192 196.08914494 38.5625 197.25 C47.01704791 202.11707758 55.45526964 207.01045585 63.875 211.9375 C73.1432131 217.35837076 82.45464523 222.70059774 91.78341675 228.01620483 C101.00954563 233.2745079 110.19649162 238.59690475 119.36132812 243.96142578 C129.19895059 249.71447006 139.09281343 255.36778945 149 261 C135.85530222 268.78063587 122.63190942 276.42193456 109.39501953 284.04443359 C103.9283002 287.19332054 98.46425113 290.34683264 93 293.5 C90.83334689 294.7500235 88.66668021 296.00002347 86.5 297.25 C85.4275 297.86875 84.355 298.4875 83.25 299.125 C73.50000001 304.75 73.50000001 304.75 70.24829102 306.62597656 C68.08731012 307.87270256 65.92634002 309.11944727 63.76538086 310.36621094 C57.14007087 314.18863965 50.51447986 318.01058005 43.88818359 321.83129883 C41.69651721 323.09574649 39.50542223 324.36118517 37.31494141 325.62768555 C32.26937396 328.54425453 27.217824 331.44829326 22.14453125 334.31640625 C21.24984131 334.82526367 20.35515137 335.33412109 19.43334961 335.85839844 C17.76966986 336.80399216 16.10266992 337.74377616 14.43188477 338.67675781 C12.58813293 339.7284508 10.78801043 340.85610417 9 342 C9 342.66 9 343.32 9 344 C9.66193359 344.3810791 10.32386719 344.7621582 11.00585938 345.15478516 C26.04126312 353.8133358 41.0523193 362.51178238 56.03222656 371.26611328 C61.01990957 374.1801084 66.01008705 377.08982568 71 380 C73.0000118 381.16664643 75.00001181 382.33331309 77 383.5 C78.485 384.36625 78.485 384.36625 80 385.25 C83 387 86 388.75 89 390.5 C89.99056396 391.07782227 90.98112793 391.65564453 92.00170898 392.25097656 C93.996036 393.41434752 95.99033949 394.57775879 97.98461914 395.74121094 C103.07122098 398.70863778 108.15826521 401.67530184 113.24609375 404.640625 C114.2736377 405.2399585 115.30118164 405.83929199 116.35986328 406.45678711 C118.38955558 407.6394057 120.42045526 408.81995487 122.45263672 409.99829102 C127.02920729 412.65649993 131.58035305 415.34059484 136.07421875 418.13671875 C136.84902588 418.61270508 137.62383301 419.08869141 138.42211914 419.57910156 C139.84029197 420.45361266 141.25044171 421.34134157 142.65014648 422.24511719 C145.56026531 424.02797401 147.42458124 425.04394746 150.87695312 424.78027344 C154.15789258 423.96055154 156.52266895 422.82866544 159.4296875 421.11328125 C160.45964844 420.51193359 161.48960937 419.91058594 162.55078125 419.29101562 C163.64777344 418.63810547 164.74476563 417.98519531 165.875 417.3125 C167.03723409 416.62996236 168.20000378 415.94833598 169.36328125 415.26757812 C171.75253504 413.86758818 174.13875621 412.46263956 176.52246094 411.05322266 C180.69773201 408.58541391 184.88781719 406.14323578 189.07861328 403.7019043 C191.03863539 402.56005956 192.99793706 401.41697732 194.95654297 400.27270508 C203.38182372 395.35071265 211.83382542 390.47576564 220.2890625 385.60546875 C228.52203025 380.86021407 236.73372212 376.07947449 244.93676758 371.28271484 C250.22269015 368.19449694 255.51710688 365.12199546 260.82421875 362.0703125 C261.39826447 361.74013123 261.97231018 361.40994995 262.56375122 361.06976318 C265.31900695 359.48529807 268.07545001 357.90297026 270.83398438 356.32421875 C272.80292284 355.19299243 274.76242139 354.04509533 276.70979023 352.8771286 C280 351 280 351 283.38886547 349.46253204 C290.29765793 346.08366305 290.29765793 346.08366305 294.17525673 339.65596008 C294.60537324 335.39519553 294.61182136 331.30920426 294.47583008 327.03710938 C294.47215912 325.42018939 294.47422932 323.80324776 294.48158264 322.18634033 C294.48530202 317.81313614 294.4090789 313.44459935 294.31812119 309.07247734 C294.23665823 304.4976581 294.22920296 299.92272265 294.21379089 295.34729004 C294.17344003 286.69086551 294.06684344 278.03658422 293.93624753 269.38110209 C293.79076259 259.52409221 293.7194208 249.66697802 293.65420687 239.80916119 C293.51844941 219.53824609 293.28990432 199.26925823 293 179 C292.28046143 178.58488159 291.56092285 178.16976318 290.81958008 177.74206543 C273.9570312 168.01367185 273.9570312 168.01367185 272.22453499 167.01415348 C269.30438758 165.32945133 266.38423716 163.64475439 263.46408081 161.96006775 C262.3349527 161.30865311 261.20582458 160.65723846 260.04248047 159.98608398 C259.03587372 159.40535629 258.02926697 158.8246286 256.99215698 158.2263031 C253.83064047 156.40228926 250.66922093 154.57810742 247.5078125 152.75390625 C243.14934612 150.23930564 238.78987809 147.72645339 234.4296875 145.21484375 C222.94693103 138.59858883 211.48039099 131.95609989 200.03857422 125.26928711 C192.70687521 120.98755083 185.35717019 116.73779993 178 112.5 C169.65201541 107.69148156 161.31756816 102.86094317 153 98 C141.45277514 91.25286886 129.87097881 84.5666063 118.28222656 77.89111328 C112.85340058 74.76319852 107.42680719 71.63141552 102 68.5 C99.83334417 67.24998121 97.6666775 65.99998122 95.5 64.75 C56.5 42.25 56.5 42.25 53.24414062 40.37133789 C51.09733086 39.13298021 48.95020016 37.8951787 46.80273438 36.65795898 C41.69881776 33.71652804 36.59851866 30.76926228 31.50927734 27.80252075 C29.09061686 26.39302963 26.67014138 24.98667235 24.24951172 23.58056641 C22.53043948 22.58021318 20.8140218 21.57530266 19.09765625 20.5703125 C18.06511719 19.97089844 17.03257813 19.37148438 15.96875 18.75390625 C15.05544922 18.22095947 14.14214844 17.6880127 13.20117188 17.13891602 C11.11700889 15.84681883 11.11700889 15.84681883 9 16 Z " fill="#FEFBFA" transform="translate(37,272)"/>
<path d="M0 0 C3.75307485 1.50122994 6.87723639 2.97735903 10.33203125 4.984375 C11.36521484 5.5825 12.39839844 6.180625 13.46289062 6.796875 C14.56826172 7.44140625 15.67363281 8.0859375 16.8125 8.75 C17.97965943 9.42735613 19.14697975 10.10443512 20.31445312 10.78125 C23.87910806 12.84936114 27.43998022 14.92392266 31 17 C32.03817871 17.60521484 33.07635742 18.21042969 34.14599609 18.83398438 C38.08504433 21.131173 42.02344511 23.42946389 45.96069336 25.72973633 C57.61289254 32.53423939 69.30729866 39.26542038 81 46 C93.98977408 53.48164733 106.97646486 60.96864252 119.9375 68.5 C120.88963379 69.05115479 121.84176758 69.60230957 122.82275391 70.17016602 C129.32089162 73.95357971 135.68347839 77.92097794 142 82 C139.50615208 84.79563775 136.74784919 86.43253404 133.49609375 88.265625 C132.37654297 88.90048828 131.25699219 89.53535156 130.10351562 90.18945312 C128.88151162 90.87630422 127.65950638 91.56315312 126.4375 92.25 C124.52395465 93.33288202 122.61142063 94.41753656 120.69888306 95.50219727 C119.39026896 96.2441454 118.08132576 96.98551334 116.77206421 97.72631836 C110.49304308 101.28015358 104.24452876 104.88593979 98 108.5 C88.42660788 114.03301085 78.83330344 119.53030755 69.22949219 125.01025391 C60.80632552 129.81717978 52.3973044 134.64799671 44 139.5 C35.15536201 144.60659129 26.30943891 149.71095323 17.44995117 154.79174805 C16.20070048 155.50872196 14.95199374 156.22664455 13.70385742 156.94555664 C11.97201581 157.94283353 10.23800881 158.93634723 8.50390625 159.9296875 C7.01612671 160.78409424 7.01612671 160.78409424 5.49829102 161.65576172 C3 163 3 163 0 164 C0 109.88 0 55.76 0 0 Z " fill="#EF5A22" transform="translate(187,369)"/>
<path d="M0 0 C0 54.12 0 108.24 0 164 C-7.86998972 160.06500514 -15.4620313 156.09977694 -23 151.625 C-25.10872844 150.38431708 -27.21813133 149.14477996 -29.328125 147.90625 C-30.41931641 147.26558594 -31.51050781 146.62492188 -32.63476562 145.96484375 C-38.31794211 142.64663392 -44.03311869 139.38467771 -49.75 136.125 C-50.92806587 135.45280995 -52.10612574 134.78060938 -53.28417969 134.10839844 C-56.85547979 132.07114215 -60.42765722 130.03542725 -64 128 C-68.75082201 125.29310618 -73.50102681 122.58513627 -78.25 119.875 C-78.83258575 119.54262329 -79.41517151 119.21024658 -80.01541138 118.86779785 C-89.07432198 113.69738709 -98.09209606 108.45947369 -107.08325195 103.17211914 C-112.35585067 100.08345805 -117.66014538 97.06362574 -123.015625 94.12109375 C-123.59665482 93.80074158 -124.17768463 93.4803894 -124.77632141 93.15032959 C-127.59294828 91.59791053 -130.4141611 90.05543305 -133.24487305 88.52880859 C-134.74594604 87.70437256 -134.74594604 87.70437256 -136.27734375 86.86328125 C-137.61140259 86.14072144 -137.61140259 86.14072144 -138.97241211 85.40356445 C-141 84 -141 84 -142 81 C-141.30777344 80.6189209 -140.61554688 80.2378418 -139.90234375 79.84521484 C-126.55726905 72.48916 -113.2720892 65.05648946 -100.13037109 57.34106445 C-92.4929731 52.85993169 -84.81798239 48.44727433 -77.125 44.0625 C-67.00834133 38.2949003 -56.91073193 32.49543317 -46.82910156 26.66674805 C-41.03841278 23.32157701 -35.23996852 19.99067361 -29.4296875 16.6796875 C-28.48080658 16.13873444 -28.48080658 16.13873444 -27.51275635 15.58685303 C-24.45510463 13.84403567 -21.39639549 12.10311895 -18.3359375 10.36523438 C-13.5927956 7.66397073 -8.87149025 4.9571676 -4.2578125 2.0390625 C-1 0 -1 0 0 0 Z " fill="#7B1B67" transform="translate(330,451)"/>
<path d="M0 0 C0 53.79 0 107.58 0 163 C-3.45264216 161.61894314 -6.38149288 160.32423797 -9.5703125 158.5234375 C-10.45243408 158.02602051 -11.33455566 157.52860352 -12.2434082 157.01611328 C-13.66979614 156.20376221 -13.66979614 156.20376221 -15.125 155.375 C-16.13199951 154.80378418 -17.13899902 154.23256836 -18.17651367 153.64404297 C-27.09055447 148.56454895 -35.91529552 143.33887932 -44.73022461 138.08984375 C-53.58916061 132.81920198 -62.50051132 127.64564886 -71.4362793 122.5065918 C-81.64290237 116.63614104 -91.81376959 110.70556792 -101.97949219 104.76464844 C-107.23468393 101.69444751 -112.49250535 98.62875509 -117.75 95.5625 C-123.39409658 92.27018998 -123.39409658 92.27018998 -126.14648438 90.65673828 C-128.21191729 89.45755726 -130.28751152 88.27582142 -132.36914062 87.10498047 C-133.46935547 86.48123535 -134.56957031 85.85749023 -135.703125 85.21484375 C-136.71536133 84.64757568 -137.72759766 84.08030762 -138.77050781 83.49584961 C-139.50624023 83.00221924 -140.24197266 82.50858887 -141 82 C-141 81.34 -141 80.68 -141 80 C-140.2879541 79.59386475 -139.5759082 79.18772949 -138.84228516 78.76928711 C-122.60954545 69.50808466 -106.39940195 60.2092014 -90.21777344 50.85888672 C-84.81329355 47.73675395 -79.40652588 44.61858796 -74 41.5 C-71.8333225 40.25001878 -69.66665583 39.00001879 -67.5 37.75 C-63.16666667 35.25 -58.83333333 32.75 -54.5 30.25 C-53.42596924 29.63036377 -52.35193848 29.01072754 -51.24536133 28.37231445 C-49.09416776 27.13124746 -46.94296345 25.89019907 -44.79174805 24.64916992 C-39.74037001 21.73501656 -34.6890969 18.82068182 -29.63821411 15.90567017 C-27.84933082 14.87326522 -26.06041283 13.84092044 -24.27148438 12.80859375 C-22.02662364 11.51314052 -19.7818281 10.2175743 -17.53710938 8.921875 C-15.55498363 7.7780992 -13.57213093 6.63558177 -11.58837891 5.49462891 C-9.98204251 4.56706888 -8.37939541 3.63304926 -6.78271484 2.68896484 C-2.20923675 0 -2.20923675 0 0 0 Z " fill="#ED3D7F" transform="translate(187,534)"/>
<path d="M0 0 C4.28456404 1.42818801 7.1910008 2.51298523 10.921875 4.73046875 C11.85112793 5.27823975 12.78038086 5.82601074 13.73779297 6.39038086 C15.22883545 7.27995483 15.22883545 7.27995483 16.75 8.1875 C18.91367549 9.46419778 21.07775166 10.74021671 23.2421875 12.015625 C24.35819336 12.67498047 25.47419922 13.33433594 26.62402344 14.01367188 C32.0212633 17.18925356 37.44764 20.3137656 42.875 23.4375 C45.05991376 24.69658348 47.24480949 25.95569823 49.4296875 27.21484375 C50.51475586 27.83987793 51.59982422 28.46491211 52.71777344 29.10888672 C58.14659942 32.23680148 63.57319281 35.36858448 69 38.5 C71.16665583 39.75001879 73.3333225 41.00001878 75.5 42.25 C88.5 49.75 88.5 49.75 91.75463867 51.62768555 C93.90583224 52.86875254 96.05703655 54.10980093 98.20825195 55.35083008 C103.25962999 58.26498344 108.3109031 61.17931818 113.36178589 64.09432983 C115.15066918 65.12673478 116.93958717 66.15907956 118.72851562 67.19140625 C120.97337636 68.48685948 123.2181719 69.7824257 125.46289062 71.078125 C130.63571774 74.06307914 135.81145009 77.04245317 141 80 C138.31974388 82.86360983 135.78467857 84.8912321 132.3515625 86.77734375 C131.44027588 87.28386475 130.52898926 87.79038574 129.59008789 88.31225586 C128.61160889 88.84858643 127.63312988 89.38491699 126.625 89.9375 C124.53154667 91.1023616 122.43912275 92.26907488 120.34765625 93.4375 C118.7546167 94.32695312 118.7546167 94.32695312 117.12939453 95.234375 C112.40070746 97.90233138 107.72877775 100.6622211 103.0625 103.4375 C92.41569789 109.7614255 81.7248308 116.00726433 71.0234375 122.23828125 C68.03514034 123.97952417 65.04852736 125.72361792 62.0625 127.46875 C60.08336917 128.62506134 58.10420247 129.78131128 56.125 130.9375 C55.14611816 131.50944092 54.16723633 132.08138184 53.15869141 132.6706543 C47.87441156 135.75394069 42.58064 138.81960138 37.2734375 141.86328125 C26.32381133 148.14457793 15.42632646 154.4546221 4.78125 161.2421875 C2 163 2 163 0 164 C0 109.88 0 55.76 0 0 Z " fill="#FBB733" transform="translate(46,288)"/>
<path d="M0 0 C0.0630806 8.00056086 0.07000316 15.99944676 0 24 C-0.00870117 25.10577393 -0.00870117 25.10577393 -0.01757812 26.23388672 C-0.15368619 34.85633269 -0.15368619 34.85633269 -3.3125 39.125 C-7.68837034 42.17793279 -11.23279334 43.34565914 -16.5 44.3125 C-29.85946331 47.10092381 -41.6858589 52.27654429 -49.66015625 63.78515625 C-57.92577814 77.44873529 -59.44954944 91.62051865 -59.51171875 107.23828125 C-59.52860709 108.85639266 -59.54676274 110.47449128 -59.56611633 112.09257507 C-59.61317227 116.30589803 -59.64326646 120.51916916 -59.66955566 124.73266602 C-59.70488894 129.81248537 -59.7617723 134.89210572 -59.81494904 139.97176361 C-59.89294083 147.64781531 -59.94393978 155.32361598 -60 163 C-74.19 163 -88.38 163 -103 163 C-103.0678357 146.48357334 -103.12305069 129.96726639 -103.15543652 113.45073891 C-103.17087644 105.78107322 -103.19191065 98.11150052 -103.22631836 90.44189453 C-103.25630911 83.75363009 -103.27559588 77.06543303 -103.28226548 70.37710321 C-103.28616144 66.8387768 -103.29525672 63.30064308 -103.31719017 59.76237869 C-103.34153098 55.80330158 -103.3419638 51.84440945 -103.34057617 47.88525391 C-103.35675491 46.14384125 -103.35675491 46.14384125 -103.3732605 44.36724854 C-103.3269806 32.126639 -100.24119794 22.9850983 -92.06640625 13.8359375 C-83.20814744 5.15646923 -72.95778438 3.17414262 -61 1 C-60.67 9.91 -60.34 18.82 -60 28 C-54.6102824 23.28715361 -54.6102824 23.28715361 -49.234375 18.55859375 C-48.41453125 17.85863281 -47.5946875 17.15867187 -46.75 16.4375 C-45.94046875 15.73496094 -45.1309375 15.03242188 -44.296875 14.30859375 C-35.54506275 7.72497052 -25.36642152 4.62796248 -14.875 2.0625 C-13.0496875 1.58973633 -13.0496875 1.58973633 -11.1875 1.10742188 C-2.27905834 -1.13952917 -2.27905834 -1.13952917 0 0 Z " fill="#FFFFFF" transform="translate(522,453)"/>
<path d="M0 0 C0 54.12 0 108.24 0 164 C-13.53 164 -27.06 164 -41 164 C-41.74854195 160.25729024 -42.12969681 157.40996927 -42.14717102 153.68257141 C-42.15432632 152.62996628 -42.16148163 151.57736115 -42.16885376 150.49285889 C-42.17154266 149.34835266 -42.17423157 148.20384644 -42.17700195 147.0246582 C-42.18357315 145.81104111 -42.19014435 144.59742401 -42.19691467 143.34703064 C-42.21662155 139.33161163 -42.22831063 135.3162325 -42.23828125 131.30078125 C-42.24233178 129.91387602 -42.24644879 128.52697098 -42.25063133 127.14006615 C-42.26966718 120.62177597 -42.28390099 114.103497 -42.2922433 107.5851844 C-42.30200696 100.08192403 -42.32831013 92.57895935 -42.36874419 85.0758031 C-42.39898803 79.26242818 -42.41372001 73.44913763 -42.41702431 67.63568562 C-42.41936556 64.17004345 -42.42820396 60.70471772 -42.45348549 57.23916054 C-42.48128001 53.36678422 -42.47690985 49.49479141 -42.4699707 45.62231445 C-42.48918579 43.92073685 -42.48918579 43.92073685 -42.50878906 42.18478394 C-42.43375404 30.65795772 -38.61767125 21.53696794 -30.3984375 13.41796875 C-23.42564934 7.59707291 -9.2472858 0 0 0 Z " fill="#FFFFFF" transform="translate(950,453)"/>
</svg>
